<svg xmlns="http://www.w3.org/2000/svg" width="1920" height="1080" viewBox="0 0 1920 1080"><rect width="1920" height="1080" fill="#F7F7EF"/><g transform="translate(96 78) scale(.46)"><path d="M22 21h116v23H47v25h70v23H47v24h91v23H22Z" fill="#20261F"/><path d="M76 9v142M115 9v43M115 108v43" stroke="#ADF3C0" stroke-width="8"/></g><text x="185" y="130" fill="#20261F" font-family="Arial, Helvetica, sans-serif" font-size="36" font-weight="600" >End Credits</text><text x="96" y="359" fill="#20261F" font-family="Arial, Helvetica, sans-serif" font-size="126" font-weight="600" letter-spacing="-7">Built together.</text><text x="96" y="494" fill="#20261F" font-family="Arial, Helvetica, sans-serif" font-size="126" font-weight="600" letter-spacing="-7">Credited together.</text><text x="102" y="601" fill="#20261F" font-family="Arial, Helvetica, sans-serif" font-size="30" font-weight="400" >Give the open source behind your AI session its credits.</text><g transform="translate(110 690) scale(1.45)"><path d="M22 21h116v23H47v25h70v23H47v24h91v23H22Z" fill="#20261F"/><path d="M76 9v142M115 9v43M115 108v43" stroke="#ADF3C0" stroke-width="8"/></g><g transform="translate(540 690) scale(1.45)"><path d="M22 21h116v23H47v25h70v23H47v24h91v23H22Z" fill="#20261F"/><path d="M76 9v142M115 9v43M115 108v43" stroke="#ADF3C0" stroke-width="8"/></g><g transform="translate(970 690) scale(1.45)"><path d="M22 21h116v23H47v25h70v23H47v24h91v23H22Z" fill="#20261F"/><path d="M76 9v142M115 9v43M115 108v43" stroke="#ADF3C0" stroke-width="8"/></g><g transform="translate(1400 690) scale(1.45)"><path d="M22 21h116v23H47v25h70v23H47v24h91v23H22Z" fill="#20261F"/><path d="M76 9v142M115 9v43M115 108v43" stroke="#ADF3C0" stroke-width="8"/></g><text x="96" y="1000" fill="#20261F" font-family="Arial, Helvetica, sans-serif" font-size="22" font-weight="400" letter-spacing="3">BUILT WITH OPEN SOURCE. CREDIT WHERE IT’S DUE.</text></svg>