<svg xmlns="http://www.w3.org/2000/svg" width="1920" height="1080" viewBox="0 0 1920 1080"><rect width="1920" height="1080" fill="#ADF3C0"/><g transform="translate(96 78) scale(.46)"><path d="m37 30-24 50 24 50M123 30l24 50-24 50" fill="none" stroke="#20261F" stroke-width="10"/><circle cx="80" cy="80" r="30" fill="#F7F7EF" stroke="#20261F" stroke-width="7"/><path d="M91 64H71v32h20M71 80h17" fill="none" stroke="#20261F" stroke-width="6"/></g><text x="185" y="130" fill="#20261F" font-family="Arial, Helvetica, sans-serif" font-size="36" font-weight="600" >End Credits</text><path d="M1130 200h630v640h-630Z" fill="#F7F7EF"/><g transform="translate(1200 250) scale(3.5)"><path d="m37 30-24 50 24 50M123 30l24 50-24 50" fill="none" stroke="#20261F" stroke-width="10"/><circle cx="80" cy="80" r="30" fill="#ADF3C0" stroke="#20261F" stroke-width="7"/><path d="M91 64H71v32h20M71 80h17" fill="none" stroke="#20261F" stroke-width="6"/></g><text x="96" y="450" fill="#20261F" font-family="Arial, Helvetica, sans-serif" font-size="116" font-weight="600" letter-spacing="-6">Good code.</text><text x="96" y="576" fill="#20261F" font-family="Arial, Helvetica, sans-serif" font-size="116" font-weight="600" letter-spacing="-6">Deserves credit.</text><text x="102" y="681" fill="#20261F" font-family="Arial, Helvetica, sans-serif" font-size="30" font-weight="400" >Your AI session. Their open-source work.</text><text x="102" y="726" fill="#20261F" font-family="Arial, Helvetica, sans-serif" font-size="30" font-weight="400" >A contribution that connects them.</text><text x="96" y="1000" fill="#20261F" font-family="Arial, Helvetica, sans-serif" font-size="22" font-weight="400" letter-spacing="3">BUILT WITH OPEN SOURCE. CREDIT WHERE IT’S DUE.</text></svg>